<svg id="Ebene_1" data-name="Ebene 1" xmlns="http://www.w3.org/2000/svg" xmlns:xlink="http://www.w3.org/1999/xlink" viewBox="0 0 240.04 70.35"><defs><style>.cls-1{fill:none;}.cls-2{clip-path:url(#clip-path);}.cls-3{fill:#085da9;}.cls-4{fill:#0e5ea9;}</style><clipPath id="clip-path"><rect class="cls-1" x="171.62" width="68.42" height="70.17"/></clipPath></defs><title>ifl_logo</title><g class="cls-2"><path class="cls-3" d="M236.6,58.44,223,63.08l-4.54-14.66,13.62-4.63Zm-18.34,6.5-7.32,2.49-2.45-7.87,7.33-2.5Zm-2.64-16.8h-8V4.31h8ZM204.54,22h-5.26V48.14h-8V22h-4.51V16h4.4V13.94q0-5.2,1.66-7.16,1.74-2.92,8.41-2.92c.51,0,1,0,1.38.05l1.69.13v6.9a22.13,22.13,0,0,0-2.27-.13,2.5,2.5,0,0,0-2.19.74,2.78,2.78,0,0,0-.61,1.74V16h5.26ZM183.93,48.14H175.8V15.73h8.13Zm0-36.28H175.8V4h8.13ZM240,0H171.62V70.17H240Z"/></g><path class="cls-4" d="M16.11,33.82h3V45.48h7.1V48H16.11Z"/><path class="cls-4" d="M35.4,37.74a4.18,4.18,0,0,1,1.82,1.55,5.23,5.23,0,0,1,.84,2.18,14.34,14.34,0,0,1,.09,2.08H30.49a2.53,2.53,0,0,0,1.1,2.22,2.84,2.84,0,0,0,1.52.4,2.28,2.28,0,0,0,1.52-.49A2.12,2.12,0,0,0,35.2,45H38a3.51,3.51,0,0,1-1,1.9,5.12,5.12,0,0,1-4,1.53,5.73,5.73,0,0,1-3.7-1.29,5.1,5.1,0,0,1-1.61-4.21,5.72,5.72,0,0,1,1.45-4.19,5.09,5.09,0,0,1,3.76-1.46A5.92,5.92,0,0,1,35.4,37.74Zm-4.11,2.37a2.84,2.84,0,0,0-.73,1.63H35.3a2.27,2.27,0,0,0-.74-1.66,2.38,2.38,0,0,0-1.63-.57A2.19,2.19,0,0,0,31.29,40.11Z"/><path class="cls-4" d="M42.94,36.27H40.15V33.73h2.79Zm-2.79,1.25h2.79V48H40.15Z"/><path class="cls-4" d="M55.17,38.79a6,6,0,0,1,1.18,3.85,6.76,6.76,0,0,1-1.16,4.07,3.78,3.78,0,0,1-3.25,1.61,3.84,3.84,0,0,1-2.1-.52,4.31,4.31,0,0,1-1-1.08V48H46.1V33.84h2.75v5A4.05,4.05,0,0,1,50,37.77a3.49,3.49,0,0,1,1.91-.48A3.91,3.91,0,0,1,55.17,38.79Zm-2.29,6.4a3.93,3.93,0,0,0,.59-2.26,5.17,5.17,0,0,0-.29-1.85,2,2,0,0,0-2-1.39,2.08,2.08,0,0,0-2.08,1.36,5.21,5.21,0,0,0-.29,1.87,3.82,3.82,0,0,0,.61,2.24,2.06,2.06,0,0,0,1.83.89A1.92,1.92,0,0,0,52.88,45.19Z"/><path class="cls-4" d="M67.34,38.13a3.46,3.46,0,0,1,1,2.83V48H65.55v-6.4a2.87,2.87,0,0,0-.22-1.27,1.55,1.55,0,0,0-1.53-.81,1.9,1.9,0,0,0-1.91,1.18,4.34,4.34,0,0,0-.26,1.61V48H58.88V37.54h2.66v1.54a4.76,4.76,0,0,1,1-1.17,3.42,3.42,0,0,1,2.14-.64A4,4,0,0,1,67.34,38.13Z"/><path class="cls-4" d="M74.34,36.27H71.56V33.73h2.78Zm-2.78,1.25h2.78V48H71.56Z"/><path class="cls-4" d="M77,39.76V37.52h8.32v2.29l-5.16,6H85.5V48H76.64V45.9l5.21-6.14Z"/><path class="cls-4" d="M87.24,41.23h5.38v2.6H87.24Z"/><path class="cls-4" d="M98.16,48h-3V33.82h3Z"/><path class="cls-4" d="M109.79,38.13a3.49,3.49,0,0,1,1,2.83V48H108v-6.4a2.87,2.87,0,0,0-.22-1.27,1.55,1.55,0,0,0-1.53-.81,1.9,1.9,0,0,0-1.91,1.18,4.13,4.13,0,0,0-.27,1.61V48h-2.75V37.54H104v1.54a4.55,4.55,0,0,1,1-1.17,3.4,3.4,0,0,1,2.14-.64A4,4,0,0,1,109.79,38.13Z"/><path class="cls-4" d="M116.1,44.68a1.77,1.77,0,0,0,.38,1,2.54,2.54,0,0,0,1.9.55,2.91,2.91,0,0,0,1.29-.24.77.77,0,0,0,.48-.72.79.79,0,0,0-.39-.71,16.15,16.15,0,0,0-2.87-.83,5.83,5.83,0,0,1-2.53-1.11,2.38,2.38,0,0,1-.73-1.89,3.28,3.28,0,0,1,1.14-2.5A4.62,4.62,0,0,1,118,37.22a6,6,0,0,1,3.21.79,3.35,3.35,0,0,1,1.43,2.72h-2.75a1.61,1.61,0,0,0-.3-.84,1.87,1.87,0,0,0-1.55-.56,2.21,2.21,0,0,0-1.28.28.8.8,0,0,0-.38.65.72.72,0,0,0,.4.69,18.73,18.73,0,0,0,2.87.76,5.32,5.32,0,0,1,2.47,1.17,2.62,2.62,0,0,1,.81,2,3.19,3.19,0,0,1-1.17,2.56,5.51,5.51,0,0,1-3.6,1,5.43,5.43,0,0,1-3.67-1,3.41,3.41,0,0,1-1.18-2.67Z"/><path class="cls-4" d="M124.45,39.58v-2h1.46V34.69h2.72v2.93h1.71v2h-1.71v5.55a1.26,1.26,0,0,0,.17.81c.11.11.44.16,1,.16h.54v2.05l-1.3,0a3.48,3.48,0,0,1-2.66-.67,2,2,0,0,1-.47-1.46V39.58Z"/><path class="cls-4" d="M135.51,36.27h-2.79V33.73h2.79Zm-2.79,1.25h2.79V48h-2.79Z"/><path class="cls-4" d="M137.68,39.58v-2h1.47V34.69h2.72v2.93h1.71v2h-1.71v5.55a1.28,1.28,0,0,0,.16.81,1.78,1.78,0,0,0,1,.16h.55v2.05l-1.31,0a3.5,3.5,0,0,1-2.66-.67,2,2,0,0,1-.46-1.46V39.58Z"/><path class="cls-4" d="M148.65,37.52v6.34a3.33,3.33,0,0,0,.21,1.35,1.47,1.47,0,0,0,1.47.8,1.91,1.91,0,0,0,1.92-1.14,4.1,4.1,0,0,0,.27-1.63V37.52h2.79V48h-2.67V46.55s-.09.13-.2.29a2.11,2.11,0,0,1-.36.43,3.91,3.91,0,0,1-1.25.79,4.27,4.27,0,0,1-1.41.21,3.13,3.13,0,0,1-3.13-1.68,6.48,6.48,0,0,1-.45-2.73V37.52Z"/><path class="cls-4" d="M157.49,39.58v-2H159V34.69h2.72v2.93h1.71v2h-1.71v5.55a1.28,1.28,0,0,0,.16.81,1.8,1.8,0,0,0,1,.16h.54v2.05l-1.31,0a3.5,3.5,0,0,1-2.66-.67,2,2,0,0,1-.46-1.46V39.58Z"/><path class="cls-4" d="M5.43,55.64l.58,0v2.24c-.15,0-.41,0-.78,0a.89.89,0,0,0-.75.24.87.87,0,0,0-.21.56v.89H6.08v1.94H4.27V70H1.54V61.51H0V59.57H1.51V58.9a3.57,3.57,0,0,1,.56-2.33c.4-.63,1.36-.94,2.89-.94Z"/><path class="cls-4" d="M11,59.47v6.34a3.33,3.33,0,0,0,.21,1.35,1.45,1.45,0,0,0,1.47.8,1.92,1.92,0,0,0,1.92-1.13,4.17,4.17,0,0,0,.27-1.63V59.47h2.79V70H15V68.5l-.19.29a1.87,1.87,0,0,1-.36.43,3.91,3.91,0,0,1-1.25.79,4.27,4.27,0,0,1-1.41.21,3.12,3.12,0,0,1-3.13-1.68,6.42,6.42,0,0,1-.45-2.73V59.47ZM9.71,55.59h2.52v2.28H9.71Zm3.86,0h2.51v2.28H13.57Z"/><path class="cls-4" d="M26.73,59.23H27v2.82l-.46,0h-.33A2.28,2.28,0,0,0,24,63.09,4.25,4.25,0,0,0,23.63,65v5H20.86V59.47h2.63v1.84a5.69,5.69,0,0,1,1.11-1.44,3,3,0,0,1,2-.65Z"/><path class="cls-4" d="M35.46,55.77h3V67.43h7.1V70H35.46Z"/><path class="cls-4" d="M52.06,63.59a4.07,4.07,0,0,0,1.1-.24.81.81,0,0,0,.59-.78.92.92,0,0,0-.45-.89A2.8,2.8,0,0,0,52,61.43a1.71,1.71,0,0,0-1.39.49,1.93,1.93,0,0,0-.4,1H47.52a4,4,0,0,1,.78-2.27,4.53,4.53,0,0,1,3.76-1.39,6.68,6.68,0,0,1,3.08.69,2.64,2.64,0,0,1,1.34,2.58v4.83c0,.33,0,.74,0,1.21a1.56,1.56,0,0,0,.17.74,1,1,0,0,0,.4.31V70h-3a3,3,0,0,1-.17-.6,5.06,5.06,0,0,1-.08-.64,5.45,5.45,0,0,1-1.32,1.06,4,4,0,0,1-2,.51,3.44,3.44,0,0,1-2.37-.82,2.9,2.9,0,0,1-.94-2.31,3,3,0,0,1,1.51-2.8,6.51,6.51,0,0,1,2.43-.68Zm-3.08-8H51.5v2.28H49Zm4.76,9.29a2.89,2.89,0,0,1-.53.26,4.31,4.31,0,0,1-.74.19l-.62.12a4.06,4.06,0,0,0-1.27.37A1.26,1.26,0,0,0,49.93,67a1.21,1.21,0,0,0,.4,1,1.49,1.49,0,0,0,1,.31A2.84,2.84,0,0,0,53,67.8a2.2,2.2,0,0,0,.79-1.9Zm-.9-9.29h2.51v2.28H52.84Z"/><path class="cls-4" d="M67.94,60.08a3.47,3.47,0,0,1,1,2.83V70H66.15v-6.4a2.9,2.9,0,0,0-.22-1.27,1.55,1.55,0,0,0-1.53-.81,1.92,1.92,0,0,0-1.91,1.19,4.25,4.25,0,0,0-.26,1.6V70H59.48V59.49h2.66V61a4.76,4.76,0,0,1,1-1.17,3.49,3.49,0,0,1,2.14-.64A4,4,0,0,1,67.94,60.08Z"/><path class="cls-4" d="M77.7,59.64a3.36,3.36,0,0,1,1.2,1.17v-5h2.79V70H79V68.53a3.88,3.88,0,0,1-1.34,1.36,3.74,3.74,0,0,1-1.88.43,3.93,3.93,0,0,1-3.1-1.49A5.74,5.74,0,0,1,71.44,65a6.62,6.62,0,0,1,1.24-4.23A4.06,4.06,0,0,1,76,59.22,3.43,3.43,0,0,1,77.7,59.64Zm.67,7.49A3.76,3.76,0,0,0,79,64.89a3.44,3.44,0,0,0-1-2.76,2.06,2.06,0,0,0-1.38-.5,1.91,1.91,0,0,0-1.77.91,4.9,4.9,0,0,0,0,4.59A2,2,0,0,0,76.6,68,2,2,0,0,0,78.37,67.13Z"/><path class="cls-4" d="M91.63,59.69a4.25,4.25,0,0,1,1.82,1.55,5.23,5.23,0,0,1,.84,2.18,14.42,14.42,0,0,1,.09,2.08H86.72a2.51,2.51,0,0,0,1.1,2.22,2.75,2.75,0,0,0,1.51.4,2.33,2.33,0,0,0,1.53-.48,2.41,2.41,0,0,0,.57-.73h2.8a3.39,3.39,0,0,1-1,1.9,5.15,5.15,0,0,1-4,1.54,5.67,5.67,0,0,1-3.7-1.3A5.09,5.09,0,0,1,84,64.84a5.68,5.68,0,0,1,1.45-4.19,5.09,5.09,0,0,1,3.76-1.46A6,6,0,0,1,91.63,59.69Zm-4.11,2.37a2.87,2.87,0,0,0-.73,1.63h4.73A2.29,2.29,0,0,0,90.79,62a2.4,2.4,0,0,0-1.63-.57A2.18,2.18,0,0,0,87.52,62.06Z"/><path class="cls-4" d="M102.18,59.23h.24v2.82L102,62h-.33a2.28,2.28,0,0,0-2.23,1.08A4.25,4.25,0,0,0,99.08,65v5H96.31V59.47h2.63v1.84a5.69,5.69,0,0,1,1.11-1.44,3,3,0,0,1,2-.65Z"/><path class="cls-4" d="M104.57,55.82h2.7v7.67l3.47-4h3.42l-3.77,3.92L114.31,70H111l-2.55-4.49-1.14,1.18V70h-2.7Z"/><path class="cls-4" d="M118.9,59.47v6.34a3.33,3.33,0,0,0,.21,1.35,1.45,1.45,0,0,0,1.47.8,1.92,1.92,0,0,0,1.92-1.13,4.17,4.17,0,0,0,.27-1.63V59.47h2.79V70h-2.67V68.5l-.2.29a1.87,1.87,0,0,1-.36.43,3.91,3.91,0,0,1-1.25.79,4.27,4.27,0,0,1-1.41.21,3.13,3.13,0,0,1-3.13-1.68,6.42,6.42,0,0,1-.45-2.73V59.47Z"/><path class="cls-4" d="M137.3,60.08a3.47,3.47,0,0,1,1,2.83V70h-2.82v-6.4a2.9,2.9,0,0,0-.22-1.27,1.55,1.55,0,0,0-1.53-.81,1.91,1.91,0,0,0-1.91,1.19,4,4,0,0,0-.27,1.6V70h-2.75V59.49h2.67V61a4.55,4.55,0,0,1,1-1.17,3.47,3.47,0,0,1,2.14-.64A4,4,0,0,1,137.3,60.08Z"/><path class="cls-4" d="M147.06,59.64a3.31,3.31,0,0,1,1.21,1.17v-5h2.79V70h-2.68V68.53A3.79,3.79,0,0,1,147,69.89a3.67,3.67,0,0,1-1.87.43,3.91,3.91,0,0,1-3.1-1.49A5.74,5.74,0,0,1,140.81,65a6.56,6.56,0,0,1,1.24-4.23,4,4,0,0,1,3.31-1.55A3.37,3.37,0,0,1,147.06,59.64Zm.68,7.49a3.83,3.83,0,0,0,.6-2.24,3.44,3.44,0,0,0-1-2.76,2.07,2.07,0,0,0-1.39-.5,1.93,1.93,0,0,0-1.77.91,4.94,4.94,0,0,0,0,4.59A1.94,1.94,0,0,0,146,68,2,2,0,0,0,147.74,67.13Z"/><path class="cls-4" d="M161,59.69a4.22,4.22,0,0,1,1.81,1.55,5,5,0,0,1,.84,2.18,12,12,0,0,1,.09,2.08h-7.65a2.49,2.49,0,0,0,1.1,2.22,2.7,2.7,0,0,0,1.51.4,2.33,2.33,0,0,0,1.53-.48,2.39,2.39,0,0,0,.56-.73h2.81a3.35,3.35,0,0,1-1,1.9,5.12,5.12,0,0,1-4,1.54,5.7,5.7,0,0,1-3.7-1.3,5.08,5.08,0,0,1-1.6-4.21,5.68,5.68,0,0,1,1.45-4.19,5.06,5.06,0,0,1,3.76-1.46A6,6,0,0,1,161,59.69Zm-4.11,2.37a2.88,2.88,0,0,0-.74,1.63h4.74a2.29,2.29,0,0,0-.73-1.66,2.4,2.4,0,0,0-1.63-.57A2.16,2.16,0,0,0,156.89,62.06Z"/></svg>